<svg width="24" height="24" viewBox="0 0 24 24" fill="none" xmlns="http://www.w3.org/2000/svg">
<path d="M4.7474 8.13513C3.21208 8.13513 1.96306 6.89748 1.96306 5.37668C1.96306 3.85573 3.21208 2.61803 4.7474 2.61803C6.28258 2.61803 7.53135 3.85553 7.53135 5.37668C7.53135 6.89768 6.28258 8.13513 4.7474 8.13513ZM4.7474 3.39223C3.63885 3.39223 2.73726 4.2825 2.73726 5.37668C2.73726 6.47071 3.63885 7.36094 4.7474 7.36094C5.85561 7.36094 6.75716 6.47071 6.75716 5.37668C6.75716 4.2825 5.85561 3.39223 4.7474 3.39223ZM5.86752 15.7727H1.01177C0.453871 15.7727 0 15.3218 0 14.7673V13.5011C0 10.909 2.12961 8.80001 4.7474 8.80001C5.77698 8.80001 6.75702 9.12131 7.58071 9.72905C7.66331 9.79004 7.71831 9.88134 7.73362 9.98287C7.74893 10.0844 7.72329 10.1879 7.66234 10.2705C7.60134 10.353 7.51007 10.408 7.40858 10.4233C7.30709 10.4386 7.20367 10.4131 7.12103 10.3522C6.43132 9.84339 5.61063 9.57421 4.7474 9.57421C2.55658 9.57421 0.774194 11.336 0.774194 13.5011V14.7673C0.774194 14.8947 0.88079 14.9985 1.01177 14.9985H5.86771C6.08129 14.9985 6.25481 15.1718 6.25481 15.3856C6.25481 15.5992 6.08129 15.7727 5.86752 15.7727V15.7727ZM22.9882 15.4798H18.1325C17.9189 15.4798 17.7454 15.3064 17.7454 15.0927C17.7454 14.8791 17.9189 14.7056 18.1325 14.7056H22.9884C23.1194 14.7056 23.226 14.602 23.226 14.4746V13.2084C23.226 11.0429 21.4436 9.28147 19.2528 9.28147C18.3378 9.28147 17.4445 9.59656 16.7374 10.1689C16.5714 10.3033 16.3278 10.2778 16.193 10.1116C16.0587 9.94548 16.084 9.70166 16.2505 9.5671C17.0948 8.88382 18.161 8.50727 19.2528 8.50727C21.8704 8.50727 24 10.6161 24 13.2084V14.4746C24 15.0288 23.5462 15.4798 22.9882 15.4798ZM19.2526 7.94385C17.7174 7.94385 16.4686 6.7064 16.4686 5.1854C16.4686 3.6644 17.7174 2.42676 19.2526 2.42676C20.7879 2.42676 22.0369 3.66426 22.0369 5.1854C22.0369 6.70655 20.7877 7.94385 19.2526 7.94385ZM19.2526 3.20095C18.1444 3.20095 17.2428 4.09123 17.2428 5.1854C17.2428 6.27958 18.1444 7.16966 19.2526 7.16966C20.3611 7.16966 21.2627 6.27958 21.2627 5.1854C21.2627 4.09123 20.361 3.20095 19.2526 3.20095Z" fill="#155DFC"/>
<path d="M17.2538 17.0323H6.74627C6.04824 17.0323 5.48047 16.4686 5.48047 15.7757V13.9949C5.48047 10.4357 8.40484 7.54026 12 7.54026C15.5953 7.54026 18.5196 10.4357 18.5196 13.9949V15.7757C18.5196 16.4686 17.9519 17.0323 17.2538 17.0323ZM12 8.31464C8.832 8.31464 6.25466 10.8629 6.25466 13.995V15.7759C6.25466 16.0418 6.47521 16.2583 6.74627 16.2583H17.2536C17.5247 16.2583 17.7452 16.0418 17.7452 15.7759V13.995C17.7454 10.8629 15.1681 8.31464 12 8.31464ZM11.8655 7.08793C9.89294 7.08793 8.28784 5.49818 8.28784 3.54377C8.28784 1.58961 9.89279 0 11.8655 0C13.8384 0 15.4433 1.58976 15.4433 3.54397C15.4433 5.49832 13.8382 7.08793 11.8655 7.08793H11.8655ZM11.8655 0.774194C10.3197 0.774194 9.06203 2.01677 9.06203 3.54397C9.06203 5.0714 10.3197 6.31394 11.8655 6.31394C13.4114 6.31394 14.6691 5.07135 14.6691 3.54397C14.6691 2.01677 13.4114 0.774194 11.8655 0.774194H11.8655Z" fill="#155DFC"/>
</svg>
