<svg width="24" height="24" viewBox="0 0 24 24" fill="none" xmlns="http://www.w3.org/2000/svg">
<path d="M20.9738 7.07025C20.9692 7.05788 20.9633 7.047 20.9576 7.03537C20.9431 7.00636 20.9248 6.97938 20.9032 6.95513C20.8958 6.94613 20.8894 6.93712 20.8807 6.92887C20.8506 6.89941 20.8156 6.87531 20.7772 6.85763L18.3761 5.79075C18.5831 5.50088 18.7226 5.1645 18.7463 4.77262C18.8036 3.82725 18.1789 3.00187 17.1915 2.71912C16.4246 2.49937 15.5606 2.6715 14.694 3.21637C14.4277 3.384 14.1671 3.58575 13.9163 3.80887L12.1522 3.02513C12.1043 3.00378 12.0525 2.99276 12 2.99276C11.9475 2.99276 11.8957 3.00378 11.8477 3.02513L10.0894 3.80625C9.30563 3.11737 8.39812 2.625 7.485 2.625C7.25437 2.625 7.02637 2.6565 6.8085 2.71912C5.82075 3.00187 5.196 3.82725 5.25375 4.773C5.27775 5.16487 5.41687 5.50088 5.62387 5.79075L3.22275 6.858C3.18445 6.8757 3.14945 6.89979 3.11925 6.92925C3.111 6.93675 3.10425 6.94613 3.09675 6.95513C3.07519 6.97938 3.0569 7.00636 3.04237 7.03537C3.03675 7.047 3.03112 7.05788 3.02625 7.07025C3.00968 7.1118 3.00078 7.15602 3 7.20075V17.1667C2.99999 17.2393 3.02103 17.3103 3.06057 17.3711C3.10011 17.432 3.15644 17.48 3.22275 17.5095L11.8477 21.3428C11.853 21.345 11.859 21.3442 11.865 21.3465C11.9085 21.3634 11.9535 21.375 12 21.375C12.0465 21.375 12.0915 21.3634 12.135 21.3461C12.1406 21.3442 12.147 21.345 12.1522 21.3424L20.7772 17.5095C20.8436 17.4801 20.8999 17.432 20.9395 17.3712C20.979 17.3103 21.0001 17.2393 21 17.1667V7.20075C20.9992 7.15602 20.9903 7.11181 20.9738 7.07025ZM11.625 11.2778V20.4225L7.875 18.756V9.61125L11.625 11.2778ZM12 10.6234L8.436 9.03937L11.3993 7.752C11.4053 7.74975 11.409 7.7445 11.4142 7.7415C11.5466 7.75125 11.6794 7.76175 11.8106 7.77112L12.0068 7.78312C12.018 7.78312 12.189 7.77112 12.189 7.77112C12.3203 7.76175 12.4534 7.75125 12.5858 7.74188C12.5914 7.7445 12.5948 7.74938 12.6007 7.752L15.564 9.03937L12 10.6234ZM16.4944 8.62613L14.1229 7.596C14.6528 7.53 15.1826 7.4445 15.7054 7.31325C16.2165 7.18538 17.1229 6.89738 17.8144 6.36188L19.7017 7.20075L16.4944 8.62613ZM15.0934 3.85125C15.5974 3.534 16.0721 3.37462 16.512 3.37462C16.6748 3.37462 16.8326 3.39637 16.9849 3.44025C17.5185 3.59287 18.0386 4.05 17.9977 4.72687C17.9411 5.65425 16.6823 6.2955 15.5228 6.58612C14.5474 6.83063 13.521 6.92287 12.5156 6.996C12.8869 6.0435 13.8818 4.614 15.0934 3.85125ZM12 3.77775L13.3433 4.37475C12.7845 4.98488 12.3127 5.67825 12.003 6.30713C11.6996 5.67863 11.2343 4.98487 10.668 4.36987L12 3.77775ZM7.01513 3.44025C7.16795 3.39674 7.3261 3.37478 7.485 3.375C9.10275 3.375 10.9481 5.58562 11.4878 6.99638C10.4813 6.92287 9.45375 6.83138 8.47687 6.58612C7.31812 6.2955 6.05887 5.65425 6.00187 4.72725C5.961 4.05037 6.48113 3.59287 7.01513 3.44025ZM6.18563 6.36188C6.8775 6.89738 7.7835 7.18538 8.29462 7.31325C8.81737 7.4445 9.34725 7.53 9.87713 7.596L7.506 8.62613L4.29825 7.20075L6.18563 6.36188ZM3.75 7.77787L7.125 9.27787V18.423L3.75 16.923V7.77787ZM12.375 11.2778L16.125 9.61088V18.7564L12.375 20.4229V11.2778ZM16.875 18.423V9.2775L20.25 7.7775V16.923L16.875 18.423Z" fill="#155DFC"/>
</svg>
