<svg width="24" height="24" viewBox="0 0 24 24" fill="none" xmlns="http://www.w3.org/2000/svg">
<path d="M22.1797 11.4395H7.91699C7.46393 11.4395 7.09668 11.8067 7.09668 12.2598C7.09668 12.7128 7.46393 13.0801 7.91699 13.0801H22.1797C22.6327 13.0801 23 12.7128 23 12.2598C23 11.8067 22.6327 11.4395 22.1797 11.4395ZM22.1797 5.28711H7.91699C7.46393 5.28711 7.09668 5.65436 7.09668 6.10742C7.09668 6.56048 7.46393 6.92773 7.91699 6.92773H22.1797C22.6327 6.92773 23 6.56048 23 6.10742C23 5.65436 22.6327 5.28711 22.1797 5.28711ZM22.1797 17.5918H7.91699C7.46393 17.5918 7.09668 17.9591 7.09668 18.4121C7.09668 18.8652 7.46393 19.2324 7.91699 19.2324H22.1797C22.6327 19.2324 23 18.8652 23 18.4121C23 17.9591 22.6327 17.5918 22.1797 17.5918Z" fill="#155DFC"/>
<path d="M3.10742 7.21484C3.71903 7.21484 4.21484 6.71903 4.21484 6.10742C4.21484 5.49581 3.71903 5 3.10742 5C2.49581 5 2 5.49581 2 6.10742C2 6.71903 2.49581 7.21484 3.10742 7.21484Z" fill="#155DFC"/>
<path d="M3.10742 13.3672C3.71903 13.3672 4.21484 12.8714 4.21484 12.2598C4.21484 11.6482 3.71903 11.1523 3.10742 11.1523C2.49581 11.1523 2 11.6482 2 12.2598C2 12.8714 2.49581 13.3672 3.10742 13.3672Z" fill="#155DFC"/>
<path d="M3.10742 19.5195C3.71903 19.5195 4.21484 19.0237 4.21484 18.4121C4.21484 17.8005 3.71903 17.3047 3.10742 17.3047C2.49581 17.3047 2 17.8005 2 18.4121C2 19.0237 2.49581 19.5195 3.10742 19.5195Z" fill="#155DFC"/>
</svg>
