<svg width="24" height="24" viewBox="0 0 24 24" fill="none" xmlns="http://www.w3.org/2000/svg">
<path d="M15.6031 10.869C15.5928 10.8625 15.582 10.8568 15.5709 10.8517L10.4536 8.217C10.2556 8.10105 10.0302 8.03994 9.80074 8.03994C9.57125 8.03994 9.3459 8.10105 9.14786 8.217C8.73911 8.45325 8.49536 8.87625 8.49536 9.34875V14.6512C8.49536 15.1237 8.73911 15.5467 9.14786 15.783C9.35636 15.903 9.58511 15.9615 9.80936 15.9615C10.0254 15.9615 10.2369 15.9075 10.4221 15.7995L15.6031 13.131C16.0119 12.894 16.2556 12.471 16.2556 12C16.2556 11.529 16.0119 11.106 15.6031 10.869ZM9.99461 9.6675L14.5246 12L9.99461 14.334V9.6675ZM19.4289 4.575C19.2881 4.43436 19.0973 4.3554 18.8983 4.35547C18.6994 4.35554 18.5086 4.43464 18.368 4.57537C18.2274 4.7161 18.1484 4.90693 18.1485 5.10589C18.1485 5.30484 18.2276 5.49561 18.3684 5.63625C20.0656 7.33275 21.0001 9.5925 21.0001 12C21.0001 14.4075 20.0656 16.6672 18.3684 18.3637C18.2967 18.4329 18.2396 18.5157 18.2003 18.6072C18.161 18.6987 18.1403 18.7971 18.1394 18.8967C18.1386 18.9963 18.1575 19.095 18.1952 19.1872C18.233 19.2794 18.2886 19.3631 18.3591 19.4335C18.4295 19.504 18.5132 19.5597 18.6054 19.5974C18.6976 19.6351 18.7963 19.654 18.8959 19.6532C18.9955 19.6523 19.0939 19.6316 19.1854 19.5923C19.2769 19.553 19.3597 19.4959 19.4289 19.4242C21.4089 17.445 22.5001 14.808 22.5001 12C22.5001 9.192 21.4096 6.555 19.4289 4.575Z" fill="#155DFC"/>
<path d="M17.2748 6.7305C17.2056 6.65886 17.1228 6.60173 17.0313 6.56242C16.9398 6.52311 16.8414 6.50242 16.7418 6.50156C16.6422 6.50069 16.5435 6.51967 16.4513 6.55738C16.3591 6.59509 16.2754 6.65078 16.205 6.7212C16.1345 6.79162 16.0788 6.87536 16.0411 6.96753C16.0034 7.0597 15.9844 7.15846 15.9853 7.25805C15.9862 7.35763 16.0069 7.45605 16.0462 7.54755C16.0855 7.63905 16.1426 7.72181 16.2143 7.791C18.5355 10.1115 18.5355 13.8885 16.2143 16.209C16.1426 16.2782 16.0855 16.3609 16.0462 16.4524C16.0069 16.5439 15.9862 16.6424 15.9853 16.7419C15.9844 16.8415 16.0034 16.9403 16.0411 17.0325C16.0788 17.1246 16.1345 17.2084 16.205 17.2788C16.2754 17.3492 16.3591 17.4049 16.4513 17.4426C16.5435 17.4803 16.6422 17.4993 16.7418 17.4984C16.8414 17.4976 16.9398 17.4769 17.0313 17.4376C17.1228 17.3983 17.2056 17.3411 17.2748 17.2695C18.6803 15.864 19.4543 13.9927 19.4543 12C19.4543 10.0072 18.6803 8.136 17.2748 6.7305ZM5.631 5.63625C5.70068 5.56661 5.75597 5.48394 5.7937 5.39294C5.83143 5.30194 5.85087 5.2044 5.8509 5.10589C5.85094 5.00737 5.83157 4.90982 5.7939 4.8188C5.75624 4.72777 5.70101 4.64505 5.63138 4.57537C5.56174 4.50569 5.47907 4.4504 5.38807 4.41267C5.29707 4.37494 5.19953 4.3555 5.10102 4.35547C5.0025 4.35543 4.90495 4.3748 4.81392 4.41247C4.7229 4.45014 4.64018 4.50536 4.5705 4.575C2.5905 6.555 1.5 9.19275 1.5 12C1.5 14.8072 2.5905 17.445 4.5705 19.425C4.63999 19.4949 4.72261 19.5503 4.81361 19.5882C4.90461 19.626 5.00219 19.6455 5.10075 19.6455C5.19931 19.6455 5.29689 19.626 5.38789 19.5882C5.47889 19.5503 5.56151 19.4949 5.631 19.425C5.70073 19.3553 5.75605 19.2726 5.7938 19.1816C5.83154 19.0905 5.85097 18.9929 5.85097 18.8944C5.85097 18.7958 5.83154 18.6982 5.7938 18.6072C5.75605 18.5161 5.70073 18.4334 5.631 18.3637C2.1225 14.8552 2.1225 9.14475 5.631 5.63625Z" fill="#155DFC"/>
<path d="M7.78565 6.73045C7.64501 6.58985 7.45428 6.51086 7.2554 6.51086C7.05653 6.51086 6.8658 6.58985 6.72515 6.73045C5.31965 8.13595 4.54565 10.0072 4.54565 12C4.54565 13.9927 5.31965 15.864 6.72515 17.2695C6.79464 17.3393 6.87726 17.3948 6.96826 17.4327C7.05926 17.4705 7.15685 17.49 7.2554 17.49C7.35396 17.49 7.45154 17.4705 7.54254 17.4327C7.63354 17.3948 7.71616 17.3393 7.78565 17.2695C7.92626 17.1288 8.00524 16.9381 8.00524 16.7392C8.00524 16.5403 7.92626 16.3496 7.78565 16.209C6.66365 15.087 6.04565 13.5922 6.04565 12C6.04565 10.4077 6.66365 8.91295 7.78565 7.79095C7.92626 7.65031 8.00524 7.45958 8.00524 7.2607C8.00524 7.06183 7.92626 6.8711 7.78565 6.73045Z" fill="#155DFC"/>
</svg>
