<svg width="90" height="90" viewBox="0 0 90 90" fill="none" xmlns="http://www.w3.org/2000/svg">
<path d="M58.5112 40.7587C58.4724 40.7345 58.432 40.7129 58.3903 40.694L39.2006 30.8137C38.458 30.379 37.6129 30.1498 36.7523 30.1498C35.8918 30.1498 35.0467 30.379 34.3041 30.8137C32.7712 31.6997 31.8572 33.2859 31.8572 35.0578V54.9422C31.8572 56.714 32.7712 58.3003 34.3041 59.1862C35.0859 59.6362 35.9437 59.8556 36.7847 59.8556C37.5947 59.8556 38.3878 59.6531 39.0825 59.2481L58.5112 49.2412C60.0441 48.3525 60.9581 46.7662 60.9581 45C60.9581 43.2337 60.0441 41.6475 58.5112 40.7587ZM37.4794 36.2531L54.4669 45L37.4794 53.7525V36.2531ZM72.8578 17.1562C72.3301 16.6289 71.6144 16.3327 70.8684 16.333C70.1223 16.3333 69.4069 16.6299 68.8795 17.1576C68.3522 17.6854 68.056 18.401 68.0563 19.1471C68.0566 19.8931 68.3532 20.6086 68.8809 21.1359C75.2456 27.4978 78.75 35.9719 78.75 45C78.75 54.0281 75.2456 62.5022 68.8809 68.8641C68.6123 69.1235 68.398 69.4338 68.2506 69.777C68.1032 70.1201 68.0257 70.4892 68.0224 70.8626C68.0192 71.236 68.0903 71.6064 68.2317 71.952C68.3732 72.2977 68.582 72.6117 68.8461 72.8758C69.1101 73.1399 69.4242 73.3487 69.7698 73.4901C70.1155 73.6315 70.4858 73.7027 70.8592 73.6994C71.2327 73.6962 71.6017 73.6186 71.9449 73.4712C72.288 73.3238 72.5984 73.1095 72.8578 72.8409C80.2828 65.4187 84.375 55.53 84.375 45C84.375 34.47 80.2856 24.5812 72.8578 17.1562Z" fill="white"/>
<path d="M64.7803 25.2394C64.5209 24.9707 64.2105 24.7565 63.8674 24.6091C63.5243 24.4617 63.1552 24.3841 62.7818 24.3808C62.4083 24.3776 62.038 24.4488 61.6923 24.5902C61.3467 24.7316 61.0326 24.9404 60.7686 25.2045C60.5045 25.4686 60.2957 25.7826 60.1543 26.1282C60.0128 26.4739 59.9417 26.8442 59.9449 27.2177C59.9482 27.5911 60.0258 27.9602 60.1732 28.3033C60.3206 28.6464 60.5348 28.9568 60.8034 29.2162C69.5081 37.9181 69.5081 52.0819 60.8034 60.7837C60.5348 61.0432 60.3206 61.3535 60.1732 61.6967C60.0258 62.0398 59.9482 62.4089 59.9449 62.7823C59.9417 63.1557 60.0128 63.5261 60.1543 63.8717C60.2957 64.2174 60.5045 64.5314 60.7686 64.7955C61.0326 65.0595 61.3467 65.2684 61.6923 65.4098C62.038 65.5512 62.4083 65.6224 62.7818 65.6191C63.1552 65.6159 63.5243 65.5383 63.8674 65.3909C64.2105 65.2435 64.5209 65.0292 64.7803 64.7606C70.0509 59.49 72.9534 52.4728 72.9534 45C72.9534 37.5272 70.0509 30.51 64.7803 25.2394ZM21.1163 21.1359C21.3776 20.8748 21.5849 20.5648 21.7264 20.2235C21.8679 19.8823 21.9408 19.5165 21.9409 19.1471C21.941 18.7777 21.8684 18.4118 21.7271 18.0705C21.5859 17.7291 21.3788 17.419 21.1177 17.1576C20.8565 16.8963 20.5465 16.689 20.2052 16.5475C19.864 16.406 19.4982 16.3331 19.1288 16.333C18.7594 16.3329 18.3936 16.4055 18.0522 16.5468C17.7109 16.688 17.4007 16.8951 17.1394 17.1562C9.71437 24.5812 5.625 34.4728 5.625 45C5.625 55.5272 9.71437 65.4187 17.1394 72.8437C17.4 73.1058 17.7098 73.3138 18.051 73.4557C18.3923 73.5976 18.7582 73.6707 19.1278 73.6707C19.4974 73.6707 19.8633 73.5976 20.2046 73.4557C20.5458 73.3138 20.8557 73.1058 21.1163 72.8437C21.3777 72.5825 21.5852 72.2723 21.7267 71.9309C21.8683 71.5895 21.9411 71.2235 21.9411 70.8539C21.9411 70.4843 21.8683 70.1183 21.7267 69.7769C21.5852 69.4354 21.3777 69.1253 21.1163 68.8641C7.95937 55.7072 7.95937 34.2928 21.1163 21.1359Z" fill="white"/>
<path d="M29.1966 25.2395C28.6691 24.7122 27.9539 24.416 27.2081 24.416C26.4624 24.416 25.7471 24.7122 25.2197 25.2395C19.9491 30.5101 17.0466 37.5273 17.0466 45.0001C17.0466 52.4729 19.9491 59.4901 25.2197 64.7607C25.4803 65.0228 25.7901 65.2308 26.1314 65.3727C26.4726 65.5146 26.8385 65.5877 27.2081 65.5877C27.5777 65.5877 27.9437 65.5146 28.2849 65.3727C28.6262 65.2308 28.936 65.0228 29.1966 64.7607C29.7238 64.2333 30.02 63.5181 30.02 62.7723C30.02 62.0265 29.7238 61.3113 29.1966 60.7839C24.9891 56.5764 22.6716 50.971 22.6716 45.0001C22.6716 39.0292 24.9891 33.4239 29.1966 29.2164C29.7238 28.6889 30.02 27.9737 30.02 27.2279C30.02 26.4821 29.7238 25.7669 29.1966 25.2395Z" fill="white"/>
</svg>
