<svg width="97" height="97" viewBox="0 0 97 97" fill="none" xmlns="http://www.w3.org/2000/svg">
<g clip-path="url(#clip0_13_1084)">
<path fill-rule="evenodd" clip-rule="evenodd" d="M11.1371 9.27188C11.1374 4.16392 16.6668 0.97131 21.0905 3.5253L84.3629 40.0557C88.7864 42.6099 88.786 48.9949 84.3623 51.5489L21.0901 88.0792C16.6663 90.633 11.1373 87.4406 11.1372 82.3326L11.1371 9.27188ZM29.1264 20.8149C25.9091 18.9574 21.8878 21.2791 21.8878 24.9941L21.888 65.9047C21.8882 69.6194 25.9089 71.9409 29.126 70.0839L64.5561 49.6283C67.7732 47.7709 67.7735 43.1276 64.5567 41.2699L29.1264 20.8149Z" fill="url(#paint0_linear_13_1084)"/>
<path d="M47.156 61.5205C47.3174 59.8751 49.0484 58.8757 50.5541 59.5586L78.7791 72.3595C80.5677 73.1707 80.6898 75.6648 78.989 76.6468L47.7373 94.69C46.0365 95.6719 43.9375 94.3192 44.1293 92.3646L47.156 61.5205Z" fill="url(#paint1_linear_13_1084)"/>
</g>
<defs>
<linearGradient id="paint0_linear_13_1084" x1="-21.1218" y1="18.5416" x2="85.5167" y2="68.3252" gradientUnits="userSpaceOnUse">
<stop stop-color="#239C57"/>
<stop offset="1" stop-color="#019FC8"/>
</linearGradient>
<linearGradient id="paint1_linear_13_1084" x1="47.6625" y1="58.474" x2="63.097" y2="85.2074" gradientUnits="userSpaceOnUse">
<stop stop-color="#F48316"/>
<stop offset="1" stop-color="#FEB90E"/>
</linearGradient>
<clipPath id="clip0_13_1084">
<rect width="97" height="97" fill="white"/>
</clipPath>
</defs>
</svg>
