<svg width="90" height="90" viewBox="0 0 90 90" fill="none" xmlns="http://www.w3.org/2000/svg">
<path fill-rule="evenodd" clip-rule="evenodd" d="M65.0437 4.95C61.8037 4.6875 57.7688 4.6875 52.6275 4.6875H37.3725C32.2312 4.6875 28.1963 4.6875 24.9563 4.95C21.6562 5.22375 18.93 5.77875 16.4625 7.03875C12.4049 9.10607 9.10607 12.4049 7.03875 16.4625C5.77875 18.93 5.22375 21.6562 4.95375 24.9563C4.6875 28.1963 4.6875 32.2312 4.6875 37.3725V53.355C4.6875 55.5819 5.12612 57.787 5.97831 59.8444C6.83051 61.9017 8.07959 63.7711 9.65424 65.3458C12.8344 68.5259 17.1476 70.3125 21.645 70.3125H23.8988C24.8325 70.3125 25.47 71.2538 25.125 72.12C22.5487 78.555 29.9625 84.375 35.6025 80.3475L45.3937 73.3538L45.5812 73.2225C48.2386 71.3496 51.4053 70.3342 54.6562 70.3125H57.4913C63.3 70.3125 66.84 70.3125 69.8175 69.4425C73.2856 68.4257 76.4424 66.5535 78.998 63.998C81.5535 61.4424 83.4257 58.2856 84.4425 54.8175C85.3125 51.84 85.3125 48.3 85.3125 42.4913V37.3725C85.3125 32.2312 85.3125 28.1963 85.05 24.9563C84.7763 21.6562 84.2212 18.93 82.9613 16.4625C80.8939 12.4049 77.5951 9.10607 73.5375 7.03875C71.07 5.77875 68.3437 5.22 65.0437 4.95ZM19.0163 12.0525C20.5575 11.265 22.4625 10.8037 25.4137 10.5637C28.3988 10.32 32.2013 10.3162 37.5 10.3162H52.5C57.7988 10.3162 61.6012 10.3162 64.5863 10.5637C67.5375 10.8037 69.4425 11.2687 70.9875 12.0525C73.9863 13.5814 76.424 16.0204 77.9513 19.02C78.7388 20.5612 79.2 22.4662 79.44 25.4175C79.6837 28.4025 79.6875 32.205 79.6875 37.5037V41.9438C79.6875 48.4762 79.6575 51.1387 79.0425 53.2387C78.2908 55.8014 76.9072 58.1341 75.0188 60.0226C73.1304 61.911 70.7977 63.2946 68.235 64.0463C66.135 64.6613 63.4725 64.6912 56.94 64.6912H54.6187C50.2192 64.7201 45.9337 66.094 42.3375 68.6288L32.3363 75.7725C31.2638 76.5375 29.8575 75.435 30.3488 74.2125C30.7706 73.1588 30.9277 72.0177 30.8061 70.8892C30.6846 69.7607 30.2881 68.6792 29.6516 67.7395C29.015 66.7997 28.1576 66.0305 27.1547 65.4991C26.1518 64.9676 25.0338 64.6903 23.8988 64.6912H21.645C18.6394 64.6912 15.757 63.4973 13.6317 61.372C11.5065 59.2468 10.3125 56.3643 10.3125 53.3587V37.5C10.3125 32.2013 10.3125 28.3988 10.56 25.4137C10.8 22.4625 11.265 20.5575 12.0488 19.0163C13.577 16.0161 16.0161 13.5807 19.0163 12.0525Z" fill="white"/>
<path d="M33.75 37.5C33.75 38.4946 33.3549 39.4484 32.6516 40.1516C31.9484 40.8549 30.9946 41.25 30 41.25C29.0054 41.25 28.0516 40.8549 27.3484 40.1516C26.6451 39.4484 26.25 38.4946 26.25 37.5C26.25 36.5054 26.6451 35.5516 27.3484 34.8484C28.0516 34.1451 29.0054 33.75 30 33.75C30.9946 33.75 31.9484 34.1451 32.6516 34.8484C33.3549 35.5516 33.75 36.5054 33.75 37.5ZM48.75 37.5C48.75 38.4946 48.3549 39.4484 47.6516 40.1516C46.9484 40.8549 45.9946 41.25 45 41.25C44.0054 41.25 43.0516 40.8549 42.3484 40.1516C41.6451 39.4484 41.25 38.4946 41.25 37.5C41.25 36.5054 41.6451 35.5516 42.3484 34.8484C43.0516 34.1451 44.0054 33.75 45 33.75C45.9946 33.75 46.9484 34.1451 47.6516 34.8484C48.3549 35.5516 48.75 36.5054 48.75 37.5ZM63.75 37.5C63.75 38.4946 63.3549 39.4484 62.6517 40.1516C61.9484 40.8549 60.9946 41.25 60 41.25C59.0054 41.25 58.0516 40.8549 57.3484 40.1516C56.6451 39.4484 56.25 38.4946 56.25 37.5C56.25 36.5054 56.6451 35.5516 57.3484 34.8484C58.0516 34.1451 59.0054 33.75 60 33.75C60.9946 33.75 61.9484 34.1451 62.6517 34.8484C63.3549 35.5516 63.75 36.5054 63.75 37.5Z" fill="white"/>
</svg>
