<svg width="90" height="90" viewBox="0 0 90 90" fill="none" xmlns="http://www.w3.org/2000/svg">
<path fill-rule="evenodd" clip-rule="evenodd" d="M44.989 14.4597C43.0048 14.4597 41.396 16.0681 41.396 18.0525V19.1969C42.5714 19.0346 43.7711 18.9508 44.989 18.9508C46.207 18.9508 47.4067 19.0346 48.5819 19.1969V18.0525C48.5819 16.0683 46.9734 14.4597 44.989 14.4597ZM53.9714 20.5448V18.0525C53.9714 13.0916 49.9498 9.07007 44.989 9.07007C40.0281 9.07007 36.0065 13.0916 36.0065 18.0525V20.5448C26.0214 24.2485 19.8381 33.9194 19.8381 44.9999V45.3862C19.8381 51.6053 17.9416 57.6766 14.4018 62.7897C12.2477 65.9009 14.4746 70.1508 18.2584 70.1508H34.21C34.21 76.1039 39.036 80.9297 44.989 80.9297C50.9421 80.9297 55.7679 76.1039 55.7679 70.1508H71.7195C75.5035 70.1508 77.7302 65.9009 75.5763 62.7897C72.0363 57.6765 70.1398 51.6053 70.1398 45.3862V44.9999C70.1398 33.9194 63.9567 24.2485 53.9714 20.5448ZM50.3784 70.1508H39.5995C39.5995 73.1273 42.0125 75.5402 44.989 75.5402C47.9656 75.5402 50.3784 73.1273 50.3784 70.1508ZM44.989 24.3402C43.1086 24.3385 41.2368 24.5933 39.4253 25.0974C30.8728 27.4825 25.2276 35.3525 25.2276 44.9999V45.3862C25.2276 52.253 23.2618 58.9762 19.5625 64.7613H70.4156C66.7163 58.9762 64.7504 52.253 64.7504 45.3862V44.9999C64.7504 35.3525 59.1053 27.4825 50.5528 25.0974C48.7412 24.5933 46.8694 24.3385 44.989 24.3402Z" fill="white"/>
</svg>
