<svg width="24" height="24" viewBox="0 0 24 24" fill="none" xmlns="http://www.w3.org/2000/svg">
<path d="M8.30855 17.5163L18.2443 9.2049C19.0493 8.53155 19.6778 7.67202 20.0754 6.70084L22 2L17.2992 3.92458C16.328 4.3222 15.4685 4.95074 14.7951 5.75569L6.48376 15.6915" stroke="#155DFC" stroke-width="0.60362" stroke-miterlimit="10" stroke-linecap="round" stroke-linejoin="round"/>
<path d="M8.30863 19.341L4.65906 15.6914C4.4071 15.4395 4.4071 15.031 4.65906 14.7791C4.91101 14.5271 5.3195 14.5271 5.57145 14.7791L9.22102 18.4286C9.47297 18.6806 9.47297 19.0891 9.22102 19.341C8.96907 19.593 8.56058 19.593 8.30863 19.341Z" stroke="#155DFC" stroke-width="0.60362" stroke-miterlimit="10" stroke-linecap="round" stroke-linejoin="round"/>
<path d="M5.79944 16.8318L7.16801 18.2004L4.43077 20.9376L3.0622 19.5689L5.79944 16.8318Z" stroke="#155DFC" stroke-width="0.60362" stroke-miterlimit="10" stroke-linecap="round" stroke-linejoin="round"/>
<path d="M3.20376 19.4276C2.90308 19.4478 2.60775 19.5674 2.37793 19.7972C1.87402 20.3011 1.87402 21.1181 2.37793 21.622C2.88183 22.1259 3.69881 22.1259 4.20271 21.622C4.43253 21.3922 4.55217 21.0969 4.57233 20.7962M17.6451 6.35484L9.22089 14.7791M9.22089 14.7791L7.43623 14.5376M9.22089 14.7791L9.46242 16.5638M4.88702 17.7444L6.25562 19.113M3.97462 18.6567L5.34323 20.0254M14.6824 12.3038L17.5163 15.6915M9.32097 12.1873L5.75571 9.20489C4.95077 8.53155 4.32223 7.67202 3.9246 6.70084L2.00002 2L6.70086 3.92458C7.67205 4.3222 8.53158 4.95074 9.20491 5.75569L11.1454 8.07544M15.6915 17.5163L12.0664 14.4838M16.1333 17.0745L14.7791 18.4286C14.5272 18.6806 14.5272 19.0891 14.7791 19.341C15.0311 19.593 15.4395 19.593 15.6915 19.341L19.3411 15.6914C19.593 15.4395 19.593 15.031 19.3411 14.779C19.0891 14.5271 18.6806 14.5271 18.4287 14.779L17.02 16.1877" stroke="#155DFC" stroke-width="0.60362" stroke-miterlimit="10" stroke-linecap="round" stroke-linejoin="round"/>
<path d="M20.938 19.5691L19.5694 20.9377L16.8322 18.2006L18.2007 16.8319L20.938 19.5691Z" stroke="#155DFC" stroke-width="0.60362" stroke-miterlimit="10" stroke-linecap="round" stroke-linejoin="round"/>
<path d="M20.7962 19.4278C21.0969 19.4479 21.3923 19.5675 21.6221 19.7974C22.126 20.3013 22.126 21.1183 21.6221 21.6222C21.1182 22.1261 20.3012 22.1261 19.7973 21.6222C19.5675 21.3923 19.4478 21.097 19.4277 20.7963M13.4152 13.4153L14.7791 14.7792M14.7791 14.7792L16.5638 14.5377M14.7791 14.7792L14.5376 16.5639M6.35486 6.35498L10.6302 10.6303M19.113 17.7445L17.7444 19.1131M20.0254 18.6569L18.6568 20.0255" stroke="#155DFC" stroke-width="0.60362" stroke-miterlimit="10" stroke-linecap="round" stroke-linejoin="round"/>
</svg>
