<svg width="90" height="90" viewBox="0 0 90 90" fill="none" xmlns="http://www.w3.org/2000/svg">
<path d="M43.9759 43.3534C49.9317 43.3534 55.0884 41.2171 59.3031 37.0024C63.5164 32.7886 65.6532 27.6326 65.6532 21.6761C65.6532 15.7213 63.5171 10.5648 59.3024 6.34938C55.0877 2.13609 49.931 0 43.9759 0C38.0192 0 32.863 2.13609 28.6492 6.35009C24.4354 10.5641 22.2984 15.7208 22.2984 21.6761C22.2984 27.6326 24.4352 32.7893 28.6494 37.0033C32.8646 41.2166 38.0213 43.3534 43.9757 43.3534H43.9759ZM32.3791 10.0793C35.6124 6.84579 39.4056 5.27413 43.9759 5.27413C48.5455 5.27413 52.3392 6.84579 55.5732 10.0793C58.8067 13.3133 60.379 17.107 60.379 21.6759C60.379 26.2462 58.8067 30.0394 55.5732 33.2734C52.3392 36.5076 48.5455 38.0792 43.9759 38.0792C39.4068 38.0792 35.614 36.5069 32.3791 33.2734C29.1449 30.0401 27.5725 26.2464 27.5725 21.6761C27.5725 17.107 29.1449 13.3133 32.3791 10.0793ZM81.9053 69.2055C81.7837 67.4519 81.538 65.5387 81.176 63.5188C80.8108 61.4834 80.3405 59.5595 79.7773 57.801C79.1952 55.9834 78.4048 54.1887 77.4263 52.4685C76.412 50.6833 75.2202 49.1287 73.8825 47.8495C72.4838 46.5113 70.7714 45.4353 68.791 44.6503C66.8177 43.8698 64.6306 43.4743 62.2914 43.4743C61.3726 43.4743 60.4842 43.8512 58.7682 44.9684C57.5484 45.7627 56.325 46.5514 55.098 47.3345C53.9191 48.0857 52.3219 48.7896 50.3492 49.4268C48.4245 50.0496 46.4704 50.3654 44.5408 50.3654C42.6129 50.3654 40.6585 50.0496 38.7325 49.4268C36.762 48.7901 35.1641 48.0864 33.9871 47.3352C32.6213 46.4624 31.3856 45.6659 30.3136 44.9676C28.5991 43.8505 27.7105 43.4734 26.7919 43.4734C24.4517 43.4734 22.2655 43.8696 20.2927 44.6512C18.3138 45.4346 16.6006 46.5106 15.2005 47.8502C13.863 49.1301 12.671 50.6838 11.6575 52.4685C10.6805 54.1885 9.88949 55.9827 9.30712 57.8017C8.74463 59.5602 8.27441 61.4834 7.90914 63.5188C7.5465 65.536 7.30146 67.4498 7.17982 69.2076C7.06029 70.9262 7 72.7149 7 74.5221C7 79.2202 8.49343 83.0234 11.4385 85.8284C14.3471 88.5966 18.1951 89.9998 22.8758 89.9998H66.2114C70.8907 89.9998 74.7388 88.5964 77.6481 85.8285C80.5938 83.0255 82.0873 79.2209 82.0873 74.5214C82.0866 72.7081 82.0256 70.9193 81.9053 69.2055ZM74.0117 82.0072C72.0897 83.8364 69.5381 84.7257 66.2106 84.7257H22.876C19.5479 84.7257 16.9963 83.8364 15.075 82.0081C13.1903 80.2138 12.2743 77.7646 12.2743 74.5221C12.2743 72.8357 12.3299 71.1707 12.4413 69.5722C12.5496 68.0038 12.7714 66.281 13.1005 64.4504C13.4251 62.6425 13.8384 60.9459 14.3301 59.4099C14.8019 57.9369 15.4452 56.4786 16.2431 55.0737C17.0046 53.7346 17.8807 52.5859 18.8475 51.6604C19.7519 50.7945 20.8918 50.086 22.2348 49.5546C23.4768 49.0627 24.8729 48.7936 26.3883 48.753C26.5729 48.8515 26.9019 49.0388 27.4347 49.3862C28.5189 50.0928 29.7685 50.8989 31.1502 51.7812C32.7076 52.7742 34.7138 53.6708 37.1109 54.4446C39.5615 55.237 42.0609 55.6394 44.5417 55.6394C47.0227 55.6394 49.5226 55.237 51.972 54.4453C54.371 53.6701 56.3767 52.7742 57.9362 51.7798C59.35 50.8763 60.5647 50.0935 61.6487 49.3862C62.1817 49.0394 62.5106 48.8513 62.6953 48.7532C64.2114 48.7936 65.6073 49.0627 66.8501 49.5544C68.1925 50.086 69.3324 50.7952 70.2367 51.6603C71.2035 52.5852 72.0795 53.7341 72.841 55.0744C73.6396 56.4786 74.2838 57.9377 74.7548 59.4092C75.2471 60.9473 75.6611 62.6432 75.9852 64.4497C76.3134 66.2838 76.5359 68.0073 76.6444 69.5729V69.5743C76.7564 71.1665 76.8126 72.831 76.8133 74.5221C76.8126 77.7653 75.8966 80.2139 74.0119 82.0072H74.0117Z" fill="white"/>
</svg>
