<svg width="90" height="90" viewBox="0 0 90 90" fill="none" xmlns="http://www.w3.org/2000/svg">
<path d="M82.125 23.2799C81.1711 22.8156 80.1046 22.6328 79.0506 22.7531C77.9965 22.8733 76.9986 23.2915 76.1738 23.9586L66.5625 31.6461V29.9999C66.7827 28.0999 66.5705 26.1747 65.9416 24.3684C65.3128 22.562 64.2836 20.9212 62.9311 19.5687C61.5787 18.2163 59.9379 17.1871 58.1315 16.5583C56.3251 15.9294 54.4 15.7172 52.5 15.9374H18.75C16.85 15.7172 14.9249 15.9294 13.1185 16.5583C11.3121 17.1871 9.67133 18.2163 8.31885 19.5687C6.96637 20.9212 5.93722 22.562 5.30838 24.3684C4.67954 26.1747 4.46728 28.0999 4.6875 29.9999V59.9999C4.46728 61.8999 4.67954 63.825 5.30838 65.6314C5.93722 67.4378 6.96637 69.0786 8.31885 70.431C9.67133 71.7835 11.3121 72.8127 13.1185 73.4415C14.9249 74.0704 16.85 74.2826 18.75 74.0624H52.5C54.4 74.2826 56.3251 74.0704 58.1315 73.4415C59.9379 72.8127 61.5787 71.7835 62.9311 70.431C64.2836 69.0786 65.3128 67.4378 65.9416 65.6314C66.5705 63.825 66.7827 61.8999 66.5625 59.9999V58.3536L76.1738 66.0411C77.1654 66.8421 78.4016 67.2789 79.6763 67.2786C80.524 67.2774 81.3607 67.0865 82.125 66.7199C83.083 66.2638 83.8914 65.5445 84.4558 64.6461C85.0202 63.7476 85.3174 62.7071 85.3125 61.6461V28.3536C85.3174 27.2926 85.0202 26.2522 84.4558 25.3537C83.8914 24.4553 83.083 23.736 82.125 23.2799ZM60.9375 59.9999C60.9375 65.9136 58.4138 68.4374 52.5 68.4374H18.75C12.8363 68.4374 10.3125 65.9136 10.3125 59.9999V29.9999C10.3125 24.0861 12.8363 21.5624 18.75 21.5624H52.5C58.4138 21.5624 60.9375 24.0861 60.9375 29.9999V59.9999ZM79.6875 61.6499L66.5625 51.1499V38.8499L79.6875 28.3499V61.6499Z" fill="white"/>
</svg>
